<?xml version="1.0" encoding="UTF-8" standalone="no"?>
<!-- Created with Inkscape (http://www.inkscape.org/) -->

<svg
   xmlns:dc="http://purl.org/dc/elements/1.1/"
   xmlns:cc="http://creativecommons.org/ns#"
   xmlns:rdf="http://www.w3.org/1999/02/22-rdf-syntax-ns#"
   xmlns:svg="http://www.w3.org/2000/svg"
   xmlns="http://www.w3.org/2000/svg"
   xmlns:sodipodi="http://sodipodi.sourceforge.net/DTD/sodipodi-0.dtd"
   xmlns:inkscape="http://www.inkscape.org/namespaces/inkscape"
   width="210mm"
   height="297mm"
   viewBox="0 0 744.09448819 1052.3622047"
   id="svg2"
   version="1.1"
   inkscape:version="0.91 r13725"
   sodipodi:docname="Jaw Booth Inside Poke.svg">
  <defs
     id="defs4" />
  <sodipodi:namedview
     id="base"
     pagecolor="#ffffff"
     bordercolor="#666666"
     borderopacity="1.0"
     inkscape:pageopacity="0.0"
     inkscape:pageshadow="2"
     inkscape:zoom="2.8"
     inkscape:cx="401.42752"
     inkscape:cy="203.31671"
     inkscape:document-units="px"
     inkscape:current-layer="layer1"
     showgrid="false"
     inkscape:window-width="1759"
     inkscape:window-height="1282"
     inkscape:window-x="1620"
     inkscape:window-y="27"
     inkscape:window-maximized="0" />
  <metadata
     id="metadata7">
    <rdf:RDF>
      <cc:Work
         rdf:about="">
        <dc:format>image/svg+xml</dc:format>
        <dc:type
           rdf:resource="http://purl.org/dc/dcmitype/StillImage" />
        <dc:title></dc:title>
      </cc:Work>
    </rdf:RDF>
  </metadata>
  <g
     inkscape:label="Layer 1"
     inkscape:groupmode="layer"
     id="layer1">
    <g
       id="g4188"
       style="stroke-width:0.09;stroke-miterlimit:4;stroke-dasharray:none">
      <path
         d="m 192.11099,745.85457 359.8725,0 0,179.8725 -359.8725,0 0,-179.8725 z"
         style="fill:none;stroke:#000000;stroke-width:0.09;stroke-linecap:round;stroke-linejoin:round;stroke-miterlimit:4;stroke-dasharray:none;stroke-opacity:1"
         id="path4165"
         inkscape:connector-curvature="0" />
      <path
         d="m 401.36349,864.72082 c 0,16.19125 -13.125,29.31625 -29.31625,29.31625 -16.19625,0 -29.32125,-13.125 -29.32125,-29.31625 0,-16.19625 13.125,-29.32125 29.32125,-29.32125 16.19125,0 29.31625,13.125 29.31625,29.32125 z"
         style="fill:none;stroke:#000000;stroke-width:0.09;stroke-linecap:round;stroke-linejoin:round;stroke-miterlimit:4;stroke-dasharray:none;stroke-opacity:1"
         id="path4167"
         inkscape:connector-curvature="0" />
      <path
         d="m 219.11367,764.86886 c 0,3.89125 -3.15375,7.04625 -7.045,7.04625 -3.8925,0 -7.04625,-3.155 -7.04625,-7.04625 0,-3.89125 3.15375,-7.04625 7.04625,-7.04625 3.89125,0 7.045,3.155 7.045,7.04625 z"
         style="fill:none;stroke:#000000;stroke-width:0.09;stroke-linecap:round;stroke-linejoin:round;stroke-miterlimit:4;stroke-dasharray:none;stroke-opacity:1"
         id="path4169"
         inkscape:connector-curvature="0" />
      <path
         d="m 539.05974,764.95814 c 0,3.89125 -3.15,7.04625 -7.04625,7.04625 -3.89125,0 -7.04125,-3.155 -7.04125,-7.04625 0,-3.89125 3.15,-7.04625 7.04125,-7.04625 3.89625,0 7.04625,3.155 7.04625,7.04625 z"
         style="fill:none;stroke:#000000;stroke-width:0.09;stroke-linecap:round;stroke-linejoin:round;stroke-miterlimit:4;stroke-dasharray:none;stroke-opacity:1"
         id="path4171"
         inkscape:connector-curvature="0" />
    </g>
  </g>
</svg>
