<?xml version="1.0" encoding="UTF-8" standalone="no"?>
<!-- Created with Inkscape (http://www.inkscape.org/) -->

<svg
   xmlns:dc="http://purl.org/dc/elements/1.1/"
   xmlns:cc="http://creativecommons.org/ns#"
   xmlns:rdf="http://www.w3.org/1999/02/22-rdf-syntax-ns#"
   xmlns:svg="http://www.w3.org/2000/svg"
   xmlns="http://www.w3.org/2000/svg"
   xmlns:sodipodi="http://sodipodi.sourceforge.net/DTD/sodipodi-0.dtd"
   xmlns:inkscape="http://www.inkscape.org/namespaces/inkscape"
   width="744.09448819"
   height="1052.3622047"
   id="svg2"
   version="1.1"
   inkscape:version="0.48.4 r9939"
   sodipodi:docname="New document 1">
  <defs
     id="defs4" />
  <sodipodi:namedview
     id="base"
     pagecolor="#ffffff"
     bordercolor="#666666"
     borderopacity="1.0"
     inkscape:pageopacity="0.0"
     inkscape:pageshadow="2"
     inkscape:zoom="1.979899"
     inkscape:cx="355.91719"
     inkscape:cy="220.80112"
     inkscape:document-units="px"
     inkscape:current-layer="layer1"
     showgrid="false"
     inkscape:window-width="1527"
     inkscape:window-height="933"
     inkscape:window-x="16"
     inkscape:window-y="7"
     inkscape:window-maximized="0" />
  <metadata
     id="metadata7">
    <rdf:RDF>
      <cc:Work
         rdf:about="">
        <dc:format>image/svg+xml</dc:format>
        <dc:type
           rdf:resource="http://purl.org/dc/dcmitype/StillImage" />
        <dc:title></dc:title>
      </cc:Work>
    </rdf:RDF>
  </metadata>
  <g
     inkscape:label="Layer 1"
     inkscape:groupmode="layer"
     id="layer1">
    <g
       id="g3831"
       style="stroke-width:0.09;stroke-miterlimit:4;stroke-dasharray:none">
      <g
         style="stroke-width:0.06446782;stroke-miterlimit:4;stroke-dasharray:none"
         id="g3020"
         transform="matrix(1.5591543,0,0,1.25,-92.014767,-9.0403125)">
        <path
           inkscape:connector-curvature="0"
           d="m 153.688,596.684 287.898,0 0,143.898 -287.898,0 0,-143.898 z"
           style="fill:none;stroke:#000000;stroke-width:0.06446782;stroke-linecap:round;stroke-linejoin:round;stroke-miterlimit:4;stroke-opacity:1;stroke-dasharray:none"
           id="path3022" />
      </g>
      <g
         style="stroke-width:0.072;stroke-miterlimit:4;stroke-dasharray:none"
         id="g3024"
         transform="matrix(1.25,0,0,1.25,9.9121094e-4,-9.0403125)">
        <path
           inkscape:connector-curvature="0"
           d="m 321.09,691.777 c 0,12.953 -10.5,23.453 -23.453,23.453 -12.957,0 -23.457,-10.5 -23.457,-23.453 0,-12.957 10.5,-23.457 23.457,-23.457 12.953,0 23.453,10.5 23.453,23.457 z"
           style="fill:none;stroke:#000000;stroke-width:0.072;stroke-linecap:round;stroke-linejoin:round;stroke-miterlimit:4;stroke-opacity:1;stroke-dasharray:none"
           id="path3026" />
      </g>
      <g
         style="stroke-width:0.072;stroke-miterlimit:4;stroke-dasharray:none"
         id="g3028"
         transform="matrix(1.25,0,0,1.25,9.9121094e-4,-9.0403125)">
        <path
           inkscape:connector-curvature="0"
           d="m 175.289,611.895 c 0,3.113 -2.519,5.636 -5.633,5.636 -3.117,0 -5.636,-2.523 -5.636,-5.636 0,-3.114 2.519,-5.637 5.636,-5.637 3.114,0 5.633,2.523 5.633,5.637 z"
           style="fill:none;stroke:#000000;stroke-width:0.072;stroke-linecap:round;stroke-linejoin:round;stroke-miterlimit:4;stroke-opacity:1;stroke-dasharray:none"
           id="path3030" />
      </g>
      <g
         style="stroke-width:0.072;stroke-miterlimit:4;stroke-dasharray:none"
         id="g3032"
         transform="matrix(1.25,0,0,1.25,9.9121094e-4,-9.0403125)">
        <path
           inkscape:connector-curvature="0"
           d="m 431.246,611.965 c 0,3.113 -2.519,5.637 -5.637,5.637 -3.113,0 -5.632,-2.524 -5.632,-5.637 0,-3.113 2.519,-5.637 5.632,-5.637 3.118,0 5.637,2.524 5.637,5.637 z"
           style="fill:none;stroke:#000000;stroke-width:0.072;stroke-linecap:round;stroke-linejoin:round;stroke-miterlimit:4;stroke-opacity:1;stroke-dasharray:none"
           id="path3034" />
      </g>
    </g>
  </g>
</svg>
