<?xml version="1.0" encoding="UTF-8" standalone="no"?>
<!-- Created with Inkscape (http://www.inkscape.org/) -->

<svg
   xmlns:dc="http://purl.org/dc/elements/1.1/"
   xmlns:cc="http://creativecommons.org/ns#"
   xmlns:rdf="http://www.w3.org/1999/02/22-rdf-syntax-ns#"
   xmlns:svg="http://www.w3.org/2000/svg"
   xmlns="http://www.w3.org/2000/svg"
   xmlns:sodipodi="http://sodipodi.sourceforge.net/DTD/sodipodi-0.dtd"
   xmlns:inkscape="http://www.inkscape.org/namespaces/inkscape"
   width="744.09448819"
   height="1052.3622047"
   id="svg2"
   version="1.1"
   inkscape:version="0.48.4 r9939"
   sodipodi:docname="New document 1">
  <defs
     id="defs4" />
  <sodipodi:namedview
     id="base"
     pagecolor="#ffffff"
     bordercolor="#666666"
     borderopacity="1.0"
     inkscape:pageopacity="0.0"
     inkscape:pageshadow="2"
     inkscape:zoom="1.4"
     inkscape:cx="428.34033"
     inkscape:cy="589.95621"
     inkscape:document-units="px"
     inkscape:current-layer="layer1"
     showgrid="false"
     inkscape:window-width="1920"
     inkscape:window-height="1018"
     inkscape:window-x="-8"
     inkscape:window-y="-8"
     inkscape:window-maximized="1" />
  <metadata
     id="metadata7">
    <rdf:RDF>
      <cc:Work
         rdf:about="">
        <dc:format>image/svg+xml</dc:format>
        <dc:type
           rdf:resource="http://purl.org/dc/dcmitype/StillImage" />
        <dc:title></dc:title>
      </cc:Work>
    </rdf:RDF>
  </metadata>
  <g
     inkscape:label="Layer 1"
     inkscape:groupmode="layer"
     id="layer1">
    <g
       transform="matrix(1.25,0,0,-1.25,152.14375,1469.5047)"
       inkscape:label="Jaw Booth Outer Nosepoke - Final"
       id="g2993"
       style="stroke:#000000;stroke-opacity:1;stroke-width:0.072;stroke-miterlimit:4;stroke-dasharray:none">
      <g
         id="g2995"
         style="stroke:#000000;stroke-opacity:1;stroke-width:0.072;stroke-miterlimit:4;stroke-dasharray:none">
        <path
           id="path2997"
           style="fill:none;stroke:#000000;stroke-width:0.072;stroke-linecap:round;stroke-linejoin:round;stroke-miterlimit:4;stroke-opacity:1;stroke-dasharray:none"
           d="m 322.285,696.566 0,106.296 m -288,-106.296 288,0 m -264.699,106.296 -23.301,0 m 23.301,0 0,-95.699 m 85,0 -85,0 m 85,95.699 0,-95.699 m 70.898,95.699 0,-95.699 m 85,0 -85,0 m 85,95.699 0,-95.699 m -120.199,15.602 2.403,0.097 2.296,0.301 2.403,0.5 2.199,0.801 2.199,0.898 2.102,1.102 2,1.301 1.898,1.5 1.699,1.597 1.602,1.801 1.5,1.903 1.199,2 1.102,2.097 0.898,2.301 0.602,2.199 0.5,2.403 0.301,2.296 0,2.403 -0.102,2.398 -0.398,2.403 -0.602,2.296 -0.801,2.204 -0.898,2.199 -1.199,2.097 -1.301,1.903 -1.5,1.898 -1.699,1.699 -1.801,1.5 -2,1.403 -2,1.199 -2.199,1 -2.204,0.898 -2.296,0.602 -2.301,0.398 -2.403,0.204 -2.398,0 -2.398,-0.204 -2.301,-0.398 -2.301,-0.602 -2.199,-0.898 -2.199,-1 -2.102,-1.199 -1.898,-1.403 -1.801,-1.5 -1.699,-1.699 -1.5,-1.898 -1.301,-1.903 -1.199,-2.097 -1,-2.199 -0.704,-2.204 -0.597,-2.296 -0.403,-2.403 -0.097,-2.398 0,-2.403 0.301,-2.296 0.5,-2.403 0.597,-2.199 0.903,-2.301 1.097,-2.097 1.199,-2 1.5,-1.903 1.5,-1.801 1.801,-1.597 1.903,-1.5 2,-1.301 2.097,-1.102 2.199,-0.898 2.204,-0.801 2.398,-0.5 2.301,-0.301 2.398,-0.097 m 131.403,-11.699 1.097,0.199 1.102,0.301 0.898,0.5 0.903,0.699 0.597,0.898 0.5,1 0.301,1 0,1.102 -0.102,1.097 -0.398,1 -0.602,1 -0.699,0.704 -0.898,0.699 -1,0.398 -1.102,0.199 -1.097,0 -1.102,-0.199 -1,-0.398 -0.898,-0.699 -0.704,-0.704 -0.597,-1 -0.403,-1 -0.199,-1.097 0.102,-1.102 0.301,-1 0.5,-1 0.597,-0.898 0.903,-0.699 0.898,-0.5 1.102,-0.301 1,-0.199 m -262.801,0 1,0.199 1.097,0.301 0.903,0.5 0.898,0.699 0.602,0.898 0.5,1 0.301,1 0,1.102 -0.102,1.097 -0.398,1 -0.602,1 -0.699,0.704 -0.903,0.699 -1,0.398 -1.097,0.199 -1.102,0 -1.097,-0.199 -1,-0.398 -0.903,-0.699 -0.699,-0.704 -0.602,-1 -0.398,-1 -0.102,-1.097 0,-1.102 0.301,-1 0.5,-1 0.602,-0.898 0.898,-0.699 0.903,-0.5 1.097,-0.301 1.102,-0.199 m -12.602,91.796 0,-106.296 m 179.199,106.296 -70.898,0 m 179.699,0 -23.801,0 m -100.597,-93.699 0.898,0.102 0.903,0.301 0.796,0.5 0.602,0.699 0.398,0.898 0.204,0.903 0,0.898 -0.204,0.898 -0.398,0.801 -0.602,0.699 -0.796,0.5 -0.903,0.301 -0.898,0.199 -0.903,-0.199 -0.898,-0.301 -0.699,-0.5 -0.602,-0.699 -0.5,-0.801 -0.199,-0.898 0,-0.898 0.199,-0.903 0.5,-0.898 0.602,-0.699 0.699,-0.5 0.898,-0.301 0.903,-0.102 m -39.199,0 0.898,0.102 0.801,0.301 0.801,0.5 0.597,0.699 0.5,0.898 0.199,0.903 0,0.898 -0.199,0.898 -0.5,0.801 -0.597,0.699 -0.801,0.5 -0.801,0.301 -0.898,0.199 -1,-0.199 -0.801,-0.301 -0.801,-0.5 -0.602,-0.699 -0.398,-0.801 -0.199,-0.898 0,-0.898 0.199,-0.903 0.398,-0.898 0.602,-0.699 0.801,-0.5 0.801,-0.301 1,-0.102"
           inkscape:connector-curvature="0" />
        <g
           transform="matrix(1,0,0,-1,0,841.88977)"
           id="g2999"
           style="stroke:#000000;stroke-opacity:1;stroke-width:0.072;stroke-miterlimit:4;stroke-dasharray:none">
          <path
             id="path3001"
             style="fill:none;stroke:#000000;stroke-width:0.072;stroke-linecap:butt;stroke-linejoin:miter;stroke-miterlimit:4;stroke-opacity:1;stroke-dasharray:none"
             d="m 142.23,54.375 71.52,0"
             inkscape:connector-curvature="0" />
        </g>
      </g>
    </g>
  </g>
</svg>
